<?xml version="1.0" encoding="UTF-8" standalone="no"?>
<!-- Created with Inkscape (http://www.inkscape.org/) -->

<svg
   width="210mm"
   height="297mm"
   viewBox="0 0 210 297"
   version="1.1"
   id="svg1"
   inkscape:version="1.3.2 (091e20e, 2023-11-25, custom)"
   sodipodi:docname="map.svg"
   xmlns:inkscape="http://www.inkscape.org/namespaces/inkscape"
   xmlns:sodipodi="http://sodipodi.sourceforge.net/DTD/sodipodi-0.dtd"
   xmlns="http://www.w3.org/2000/svg"
   xmlns:svg="http://www.w3.org/2000/svg">
  <sodipodi:namedview
     id="namedview1"
     pagecolor="#505050"
     bordercolor="#eeeeee"
     borderopacity="1"
     inkscape:showpageshadow="0"
     inkscape:pageopacity="0"
     inkscape:pagecheckerboard="0"
     inkscape:deskcolor="#505050"
     inkscape:document-units="mm"
     inkscape:zoom="0.022855947"
     inkscape:cx="-10566.178"
     inkscape:cy="6715.9765"
     inkscape:window-width="1920"
     inkscape:window-height="1017"
     inkscape:window-x="-8"
     inkscape:window-y="-8"
     inkscape:window-maximized="1"
     inkscape:current-layer="layer1" />
  <defs
     id="defs1" />
  <g
     inkscape:label="Camada 1"
     inkscape:groupmode="layer"
     id="layer1">
    <path
       style="fill:#000000;stroke-width:2.64583"
       d="m -336.06796,-1019.0606 -83.2035,-141.0841 104.9087,-57.8807 148.3193,-47.028 144.701699,36.1754 43.4105,86.821 -50.6456,130.2315 -101.291199,10.8526 39.792999,173.64197 47.028,191.7297 14.4702,274.933 h 122.9964 l 195.347401,43.4106 50.6455,-253.2279 -3.6175,-264.0805 122.9964,-166.40687 224.2877,-148.3192 h 231.5227 l 72.3508,-57.8806 -75.9683,-122.9964 -224.2877,-101.2911 -173.6421,-97.6737 v -79.5859 l -108.5262,-57.8806 -126.614,-47.028 10.8527,-148.3192 260.463,-61.4982 484.75066,50.6456 3.6176,151.9367 -173.64206,54.2631 -177.2596,32.5579 227.9052,144.7016 195.34716,39.7929 43.4106,307.491 -75.9684,122.9964 119.3789,137.46657 57.8807,300.2559 -94.0561,119.3788 -108.5263,115.7613 -115.76126,137.4666 -224.2877,39.7929 177.2596,198.964802 -90.4385,307.490898 -65.1159,144.7016 195.3474,79.586 249.61036,43.4104 267.6981,32.5579 238.7578,25.3228 267.6983,7.2351 209.8173,180.8769 -180.8769,202.58233 -191.73,144.7018 -173.6419,-141.0841 -130.2315,-151.93673 -155.5544,-94.0561 -408.78226,-43.4107 -242.3753,-90.4384 -249.6105,188.1121 -336.431501,-10.8525 -321.961299,-122.9965 -119.3789,-245.9928 -307.4911,-28.9403 -217.0525,245.9928 3.6175,166.4069 285.7859,245.99273 -101.2912,206.1999 -477.51564,79.5859 -441.3402,-36.1754 -112.1438,-184.4945 57.8807,-184.49463 -90.4386,-79.5859 -231.5227,-198.9648 -57.8807,-437.7224 -47.0281,-253.227898 -7.235,-303.873402 57.8806,-629.4521 39.793,-437.72247 21.7052,-184.4946 835.6524,18.0878 v 285.7857 l -217.0526,108.5262 -358.1367,-47.028 h -104.9087 l -86.821,864.59227 72.3508,951.4131 278.5508,242.3753 231.5227,-50.6456 274.9332,3.6174 14.4702,-293.0207 119.37894,-195.3471 274.9332,-144.7017 7.2351,-256.845298 94.0561,-242.375302 296.6385,-75.9684 68.7333,-7.2351 -61.4982,-466.6627 -14.4702,-155.55426 z"
       id="path1" />
    <path
       style="fill:#000000;stroke-width:2.64583"
       d="m 456.17384,-259.37703 151.9368,57.8806 47.0281,-108.5262 180.8771,-68.7333 130.2315,-90.4385 -122.9965,-173.6419 -7.235,-170.0245 -115.7614,-137.46651 -170.0245,133.84901 -47.0281,224.2876 z"
       id="path2" />
  </g>
</svg>
